<?xml version="1.0" encoding="UTF-8" standalone="no"?>
<!-- Created with Inkscape (http://www.inkscape.org/) -->

<svg
   xmlns:dc="http://purl.org/dc/elements/1.1/"
   xmlns:cc="http://creativecommons.org/ns#"
   xmlns:rdf="http://www.w3.org/1999/02/22-rdf-syntax-ns#"
   xmlns:svg="http://www.w3.org/2000/svg"
   xmlns="http://www.w3.org/2000/svg"
   xmlns:inkscape="http://www.inkscape.org/namespaces/inkscape"
   version="1.1"
   width="659.95471"
   height="647.68988"
   id="svg2">
  <defs
     id="defs4">
    <linearGradient
       id="linearGradient5431">
      <stop
         id="stop5433"
         style="stop-color:#0000d3;stop-opacity:0.61739129"
         offset="0" />
      <stop
         id="stop5435"
         style="stop-color:#000000;stop-opacity:0"
         offset="1" />
    </linearGradient>
    <inkscape:path-effect
       effect="skeletal"
       id="path-effect3805" />
    <inkscape:path-effect
       effect="skeletal"
       id="path-effect3795" />
    <inkscape:path-effect
       effect="skeletal"
       id="path-effect3022" />
    <inkscape:path-effect
       effect="skeletal"
       id="path-effect3014" />
  </defs>
  <metadata
     id="metadata7">
    <rdf:RDF>
      <cc:Work
         rdf:about="">
        <dc:format>image/svg+xml</dc:format>
        <dc:type
           rdf:resource="http://purl.org/dc/dcmitype/StillImage" />
        <dc:title></dc:title>
      </cc:Work>
    </rdf:RDF>
  </metadata>
  <g
     transform="translate(-26.259582,-229.00504)"
     id="layer1">
    <path
       d="m 417.00349,242.39371 c 0,5.84998 -3.49437,10.59233 -7.80488,10.59233 -4.31052,0 -7.80488,-4.74235 -7.80488,-10.59233 0,-5.84999 3.49436,-10.59234 7.80488,-10.59234 4.31051,0 7.80488,4.74235 7.80488,10.59234 z m -13.37979,43.48431 c 0,6.46577 -5.24155,11.70732 -11.70732,11.70732 -6.46577,0 -11.70732,-5.24155 -11.70732,-11.70732 0,-6.46577 5.24155,-11.70732 11.70732,-11.70732 6.46577,0 11.70732,5.24155 11.70732,11.70732 z m -32.3345,21.74219 c 0,6.77367 -4.74235,12.26481 -10.59233,12.26481 -5.84999,0 -10.59234,-5.49114 -10.59234,-12.26481 0,-6.77367 4.74235,-12.26481 10.59234,-12.26481 5.84998,0 10.59233,5.49114 10.59233,12.26481 z m -10.03484,-89.75612 c 0,23.09205 -18.47021,41.81185 -41.25436,41.81185 -22.78415,0 -41.25436,-18.7198 -41.25436,-41.81185 0,-23.09205 18.47021,-41.81185 41.25436,-41.81185 22.78415,0 41.25436,18.7198 41.25436,41.81185 z M 146.56272,621.5453 c 40.13937,-89.19861 40.13937,-90.31359 40.13937,-90.31359 l 0,0 M 250.2561,647.1899 c 27.87456,-73.58885 27.87456,-73.58885 27.87456,-73.58885 m 93.65854,59.09407 c -20.06969,-57.97909 -17.83972,-51.28919 -17.83972,-51.28919 m 109.26829,27.87456 c -44.5993,-65.78397 -45.71428,-65.78397 -45.71428,-65.78397 M 588.09582,532.34669 C 475.48258,467.6777 475.48258,467.6777 475.48258,467.6777 M 620.43032,456.52787 C 510.04704,391.85888 508.93206,391.85888 508.93206,391.85888 M 647.1899,359.52439 C 534.57666,318.27003 533.46167,318.27003 533.46167,318.27003 M 659.45471,268.09582 C 547.95645,255.83101 547.95645,255.83101 547.95645,255.83101 m 80.27874,-78.04878 c -85.85366,24.52962 -82.50871,21.18467 -82.50871,21.18467 M 581.40592,61.82404 c -80.27874,71.35888 -80.27874,71.35888 -80.27874,71.35888 M 453.18293,27.25958 c -31.21951,69.12892 -31.21951,70.2439 -31.21951,70.2439 M 347.25958,0.5 C 333.87979,66.28397 332.76481,72.97387 332.76481,72.97387 M 253.60105,77.4338 C 241.97459,40.55022 219.7571,15.34229 203.59163,12.36047 M 57.364111,536.80662 C 120.91812,449.83798 120.91812,448.72299 120.91812,448.72299 M 95.273518,384.054 C 0.5,442.0331 0.5,443.14808 0.5,443.14808 l 0,-1.11498 0,0 M 89.698608,284.82056 C 11.649826,268.09582 11.649826,268.09582 11.649826,268.09582 M 109.76829,190.04704 C 29.489547,129.83798 25.029617,129.83798 25.029617,129.83798 M 177.78223,113.11324 C 108.65331,62.93902 94.158538,68.51393 94.158538,68.51393 M 534.57665,319.94248 c -8.00101,29.65193 -14.12368,40.19218 -25.81143,72.77282 -11.68775,32.58064 -15.56077,44.83234 -32.44228,73.44723 -16.8815,28.61489 -35.62166,61.32818 -59.20393,79.08286 -23.58227,17.75467 -34.16693,26.12566 -65.95698,33.93054 -30.82633,7.56827 -47.98169,3.33968 -74.43608,-4.87173 -26.25402,-8.14922 -71.063,-22.49212 -90.18279,-42.02132 -19.09082,-19.49959 -54.03366,-54.30166 -66.99126,-81.38428 -12.9576,-27.08262 -19.53969,-31.95102 -26.508332,-65.17215 -6.30517,-30.05823 -8.77157,-71.29161 -5.272,-101.3466 3.49958,-30.05499 9.62015,-67.8863 22.718892,-93.37042 13.09873,-25.48411 42.09547,-62.03566 64.58777,-78.38126 22.4923,-16.3456 47.52658,-30.21048 79.08032,-34.07942 59.10712,-7.24739 53.64326,-8.13107 77.94884,-6.36982 20.89104,1.51383 55.72006,13.57231 88.69647,24.23042 32.97641,10.65811 68.18424,27.08752 79.7854,36.55857 23.2023,18.94211 38.94655,39.04033 45.68463,65.49577 3.36904,13.22773 1.97783,35.84964 -0.18595,57.92352 -2.16379,22.07389 -7.33011,48.05969 -11.51129,63.55527 z"
       transform="translate(26.259582,229.00504)"
       id="path5483"
       style="fill:none;stroke:#1800c8;stroke-width:8;stroke-linecap:round;stroke-linejoin:round;stroke-miterlimit:4;stroke-opacity:1;stroke-dashoffset:0" />
  </g>
</svg>
