<?xml version="1.0" encoding="UTF-8" standalone="no"?>
<!-- Created with Inkscape (http://www.inkscape.org/) -->

<svg
   xmlns:dc="http://purl.org/dc/elements/1.1/"
   xmlns:cc="http://creativecommons.org/ns#"
   xmlns:rdf="http://www.w3.org/1999/02/22-rdf-syntax-ns#"
   xmlns:svg="http://www.w3.org/2000/svg"
   xmlns="http://www.w3.org/2000/svg"
   version="1.1"
   width="50"
   height="50"
   id="svg2">
  <defs
     id="defs4" />
  <metadata
     id="metadata7">
    <rdf:RDF>
      <cc:Work
         rdf:about="">
        <dc:format>image/svg+xml</dc:format>
        <dc:type
           rdf:resource="http://purl.org/dc/dcmitype/StillImage" />
        <dc:title></dc:title>
      </cc:Work>
    </rdf:RDF>
  </metadata>
  <g
     transform="translate(0,-1002.3622)"
     id="layer1">
    <path
       d="m 9.1981132,1026.3795 c 0,1.5414 -0.9151412,2.7909 -2.0440252,2.7909 -1.1288839,0 -2.0440252,-1.2495 -2.0440252,-2.7909 0,-1.5414 0.9151413,-2.7909 2.0440252,-2.7909 1.128884,0 2.0440252,1.2495 2.0440252,2.7909 z m 36.2421398,0.1965 c 0,1.7368 -1.126327,3.1447 -2.515723,3.1447 -1.389396,0 -2.515723,-1.4079 -2.515723,-3.1447 0,-1.7367 1.126327,-3.1446 2.515723,-3.1446 1.389396,0 2.515723,1.4079 2.515723,3.1446 z m -9.827047,-2.7515 c 0,1.2591 -1.108728,2.2798 -2.476415,2.2798 -1.367686,0 -2.476415,-1.0207 -2.476415,-2.2798 0,-1.2592 1.108729,-2.2799 2.476415,-2.2799 1.367687,0 2.476415,1.0207 2.476415,2.2799 z m -9.040878,-2.5551 c 0,1.1506 -0.844746,2.0834 -1.886793,2.0834 -1.042046,0 -1.886792,-0.9328 -1.886792,-2.0834 0,-1.1506 0.844746,-2.0833 1.886792,-2.0833 1.042047,0 1.886793,0.9327 1.886793,2.0833 z m -6.289309,11.6353 c 0,2.757 -2.252655,4.9921 -5.031446,4.9921 -2.778792,0 -5.031447,-2.2351 -5.031447,-4.9921 0,-2.7571 2.252655,-4.9922 5.031447,-4.9922 2.778791,0 5.031446,2.2351 5.031446,4.9922 z m 19.057831,-21.0036 c 1.917041,2.2739 0.506232,4.675 -1.313686,5.8979 -1.819917,1.2229 -4.640001,0.2131 -6.298832,-2.2555 -1.658832,-2.4686 -1.099202,-4.9891 0.291672,-6.6841 1.584069,-1.9304 5.504782,0.8875 7.320846,3.0417 z m -3.098713,21.2394 c 0,3.582 -2.903813,6.4859 -6.485848,6.4859 -3.582036,0 -6.485849,-2.9039 -6.485849,-6.4859 0,-3.582 2.903813,-6.4858 6.485849,-6.4858 3.582035,0 6.485848,2.9038 6.485848,6.4858 z m -20.676099,-16.2343 c 0,0.7381 -0.703954,1.3365 -1.572327,1.3365 -0.868372,0 -1.572327,-0.5984 -1.572327,-1.3365 0,-0.7381 0.703955,-1.3365 1.572327,-1.3365 0.868373,0 1.572327,0.5984 1.572327,1.3365 z m 30.486955,10.2988 c 0,11.7575 -9.531339,21.2888 -21.288841,21.2888 -11.757503,0 -21.2888416,-9.5313 -21.2888416,-21.2888 0,-11.7575 9.5313386,-21.2889 21.2888416,-21.2889 11.757502,0 21.288841,9.5314 21.288841,21.2889 z"
       id="path3919"
       style="fill:#ffffff;fill-opacity:0.99557525;stroke:#000000;stroke-width:1;stroke-linecap:round;stroke-linejoin:round;stroke-miterlimit:4;stroke-opacity:1;stroke-dashoffset:0" />
  </g>
</svg>
